Coordinates
version=1
nRows=14
nColumns=36
inDegrees=yes

Units are S.I. units (second, meters, Newtons, ...)
If the header above contains a line with 'inDegrees', this indicates whether rotational values are in degrees (yes) or radians (no).

endheader
time	pelvis_tilt	pelvis_list	pelvis_rotation	pelvis_tx	pelvis_ty	pelvis_tz	hip_flexion_r	hip_adduction_r	hip_rotation_r	knee_angle_r	knee_angle_r_beta	ankle_angle_r	subtalar_angle_r	mtp_angle_r	hip_flexion_l	hip_adduction_l	hip_rotation_l	knee_angle_l	knee_angle_l_beta	ankle_angle_l	subtalar_angle_l	mtp_angle_l	lumbar_extension	lumbar_bending	lumbar_rotation	arm_flex_r	arm_add_r	arm_rot_r	elbow_flex_r	pro_sup_r	arm_flex_l	arm_add_l	arm_rot_l	elbow_flex_l	pro_sup_l
      2.14000000	    -31.79372737	     -1.19577744	     -0.28966235	     -0.25473280	      0.73863927	     -0.57062122	     74.77548065	      1.55830933	     -1.29550801	     73.17174613	      1.27708789	     22.34068374	     -8.44175550	     -7.49949998	     77.65318870	     -8.90219038	      3.48762177	     73.97683809	      1.29113939	     20.38934300	     -2.51174138	     -7.49949998	    -31.17131167	      8.70985591	     -2.03494721	     -4.95619505	    -13.26438134	    -13.08008444	     61.61220938	    100.30125168	    -10.79005848	     -9.17231615	     -8.84815846	     58.44202211	     78.25318423
      2.15000000	    -31.20029260	     -1.48341392	     -0.36077784	     -0.25406010	      0.73598935	     -0.57058026	     74.42307007	      1.87939055	     -1.48764386	     73.83978600	      1.28874738	     22.88690232	     -8.80980259	     -7.49951583	     77.18761515	     -9.01278070	      3.73544045	     74.60142599	      1.30204051	     21.70979878	     -3.01667226	     -7.49951583	    -31.34008666	      8.91579755	     -1.64900584	     -0.38671890	    -13.59122462	    -10.06553048	     60.12186486	     99.54947367	     -6.08141937	     -9.90272463	     -7.13579279	     57.10067040	     77.68983697
      2.16000000	    -30.49804224	     -1.72736103	     -0.48503530	     -0.25323204	      0.73355055	     -0.57074233	     73.93827215	      2.22221186	     -1.62192849	     74.50467491	      1.30035189	     23.52587533	     -9.24126419	     -7.49952221	     76.51505650	     -9.08265851	      3.93672951	     75.13692782	      1.31138678	     23.12763296	     -3.95968132	     -7.49952221	    -31.64665523	      9.07579034	     -1.23800126	      4.14759184	    -13.74768076	     -8.10470597	     59.66471313	     99.28359742	     -1.35673799	    -10.50575089	     -5.68503858	     56.52554201	     77.43260923
      2.17000000	    -29.96672290	     -2.00354030	     -0.66202839	     -0.25250486	      0.73051334	     -0.57048233	     73.72224298	      2.70660365	     -1.74650407	     75.25116892	      1.31338066	     23.93956361	     -9.85092951	     -7.49963133	     76.23383012	     -9.32901550	      4.08805994	     75.97502033	      1.32601425	     24.25919827	     -4.35970913	     -7.49963133	    -31.43521533	      9.19305064	     -0.82245300	      8.54292544	    -14.15345965	     -4.75464558	     59.99343816	     94.07821437	      3.40749287	    -11.65805402	     -2.53799498	     56.74551612	     73.02691715
      2.18000000	    -29.07297881	     -2.29210331	     -0.95190182	     -0.25149399	      0.72825650	     -0.57003233	     73.05731335	      3.35567806	     -1.85415818	     75.92332846	      1.32511206	     24.46701622	    -10.31341341	     -7.49963486	     75.54932086	     -9.67881388	      4.28832098	     76.81964321	      1.34075570	     25.15751234	     -5.08441312	     -7.49963486	    -31.72798517	      9.16760558	     -0.24990891	     12.95227618	    -14.11587990	     -3.19760794	     61.09877723	     94.24563826	      8.09936465	    -12.15433001	     -1.44168664	     58.03669645	     73.18023669
      2.19000000	    -28.04650797	     -2.47490845	     -1.05374696	     -0.25040892	      0.72614607	     -0.57031690	     72.19449010	      3.74709628	     -1.88861983	     76.56351467	      1.33628542	     25.18206729	    -11.03562300	     -7.49964368	     74.70552164	     -9.65122838	      4.59181165	     77.62932771	      1.35488736	     26.17451314	     -5.72602487	     -7.49964368	    -31.90294205	      9.09917053	      0.14575524	     17.48941281	    -14.51972573	     -0.67290616	     62.66472243	     94.59466880	     12.99393658	    -12.98191735	      0.84357122	     59.76074969	     73.48010484
      2.20000000	    -27.02293132	     -2.44794141	     -0.97326020	     -0.24941812	      0.72393962	     -0.57138596	     71.35047308	      3.78555025	     -1.81884655	     77.27574983	      1.34871627	     26.01266162	    -11.67090493	     -7.49964871	     73.87037520	     -9.20756559	      4.84030887	     78.44221188	      1.36907487	     26.97666397	     -6.52108323	     -7.49964871	    -31.84287902	      8.98917898	      0.12820076	     22.13868786	    -14.59496657	      0.76201557	     64.92888654	     94.93616580	     17.93480389	    -13.49375436	      2.02764458	     62.05770141	     73.85077351
      2.21000000	    -26.15634075	     -2.31086748	     -1.03199187	     -0.24864468	      0.72156276	     -0.57216274	     70.77147985	      3.92181710	     -1.54829366	     78.08321157	      1.36280913	     26.72463497	    -12.16987582	     -7.49965445	     73.21329149	     -8.78659502	      5.04174205	     79.30155325	      1.38407321	     27.53807179	     -7.40040152	     -7.49965445	    -31.37019318	      8.76801062	     -0.09213908	     27.05265310	    -14.65993020	      2.59455989	     67.49791550	     95.36887299	     22.94640213	    -14.18156087	      3.38280280	     64.67619808	     74.32330656
      2.22000000	    -25.12908931	     -2.19485309	     -1.28233805	     -0.24780635	      0.72004905	     -0.57233832	     70.01469889	      4.28949342	     -1.20281296	     78.81474662	      1.37557683	     27.18099012	    -12.55057253	     -7.49965912	     72.30224366	     -8.58615030	      5.21543957	     80.06966078	      1.39747921	     27.99598295	     -8.23048533	     -7.49965912	    -31.03538823	      8.45740330	     -0.15483132	     32.30322327	    -14.67892469	      4.36023871	     70.36815138	     95.84012744	     28.37463210	    -14.80116523	      4.65438591	     67.42408949	     74.85751741
      2.23000000	    -24.06775973	     -2.04244249	     -1.59346943	     -0.24687228	      0.71920634	     -0.57241332	     69.15503729	      4.66570044	     -0.81588278	     79.41585913	      1.38606822	     27.48747554	    -12.87237387	     -7.49966430	     71.26125815	     -8.50240307	      5.20083893	     80.68747341	      1.40826208	     28.35302950	     -9.04337728	     -7.49966430	    -30.69628722	      8.03980305	     -0.09246422	     37.78671123	    -14.94979662	      6.14005159	     73.54069959	     96.44096021	     34.29476571	    -15.52337738	      6.27821482	     70.34417881	     75.55748226
      2.24000000	    -23.12899476	     -1.83744953	     -1.86764473	     -0.24589378	      0.71872231	     -0.57255743	     68.38384579	      4.93900904	     -0.40923647	     79.95311198	      1.39544505	     27.68984807	    -13.19295574	     -7.49966782	     70.26626215	     -8.42460494	      5.00420440	     81.16859297	      1.41665920	     28.68134940	     -9.72508599	     -7.49966782	    -30.11303799	      7.64356466	     -0.09108675	     43.45300124	    -15.22593523	      7.76988057	     76.82492049	     96.99660006	     40.53871043	    -16.14705992	      7.70372706	     73.09282441	     76.20951810
      2.25000000	    -22.53774742	     -1.55080102	     -2.20487109	     -0.24501221	      0.71851306	     -0.57252449	     67.88837852	      5.26823386	      0.18669692	     80.27205118	      1.40101159	     27.73421724	    -13.63319157	     -7.49968073	     69.42113642	     -8.25216585	      4.77166554	     81.25881578	      1.41823388	     28.70899548	    -11.03508895	     -7.49968073	    -29.01656136	      7.10211858	      0.09674853	     49.15955474	    -15.80449152	      9.38540814	     79.97236776	     98.05708653	     47.24331205	    -16.65126605	      9.93588734	     75.20069479	     77.65187294
      2.26000000	    -21.85200765	     -1.43975074	     -2.52622919	     -0.24393796	      0.71951978	     -0.57274196	     67.12001111	      5.48315923	      0.44799071	     80.33835214	      1.40216876	     27.71627584	    -13.73724917	     -7.49968399	     68.37966351	     -8.20892601	      4.62176525	     81.22441383	      1.41763345	     29.08010434	    -11.57297304	     -7.49968399	    -28.11493460	      6.75086994	      0.05405329	     55.33301271	    -16.06596070	     10.93742408	     82.89068013	     98.48543793	     53.87885323	    -16.71569821	     10.77215725	     77.62980696	     78.21802657
      2.27000000	    -21.34786415	     -1.29377812	     -2.78456874	     -0.24270974	      0.72165564	     -0.57319109	     66.34287798	      5.56407461	      0.74069261	     80.06067354	      1.39732235	     27.65122643	    -13.73851304	     -7.49968925	     67.35098268	     -8.15985623	      4.33962864	     80.80015226	      1.41022869	     29.25285182	    -12.07993230	     -7.49968925	    -27.09237167	      6.41896659	      0.01227625	     61.81368950	    -16.71644982	     12.89382787	     85.65183480	     98.78533097	     60.81268331	    -17.08137787	     12.55233732	     79.84063258	     78.74095474
